<svg width="162" height="35" viewBox="0 0 162 35" fill="none" xmlns="http://www.w3.org/2000/svg">
<path d="M11.064 21.28H7.992V34H0.119995V0.736023H11.016C15.56 0.736023 18.968 1.56802 21.24 3.23202C23.544 4.89602 24.696 7.44002 24.696 10.864C24.696 13.008 24.184 14.8 23.16 16.24C22.136 17.648 20.52 18.848 18.312 19.84L26.76 34H17.88L11.064 21.28ZM7.992 15.856H11.304C13.064 15.856 14.376 15.456 15.24 14.656C16.136 13.856 16.584 12.592 16.584 10.864C16.584 9.26402 16.104 8.09602 15.144 7.36002C14.216 6.62402 12.776 6.25602 10.824 6.25602H7.992V15.856Z" fill="#141414"/>
<path d="M51.1219 20.752C51.1219 21.808 51.0739 22.72 50.9779 23.488H35.1859C35.4419 25.632 36.0499 27.136 37.0099 28C37.9699 28.864 39.2979 29.296 40.9939 29.296C42.0179 29.296 43.0099 29.12 43.9699 28.768C44.9299 28.384 45.9699 27.808 47.0899 27.04L50.2099 31.264C47.2339 33.632 43.9219 34.816 40.2739 34.816C36.1459 34.816 32.9779 33.6 30.7699 31.168C28.5619 28.736 27.4579 25.472 27.4579 21.376C27.4579 18.784 27.9219 16.464 28.8499 14.416C29.7779 12.336 31.1379 10.704 32.9299 9.52002C34.7219 8.30402 36.8659 7.69602 39.3619 7.69602C43.0419 7.69602 45.9219 8.84802 48.0019 11.152C50.0819 13.456 51.1219 16.656 51.1219 20.752ZM43.6819 18.592C43.6179 14.688 42.2419 12.736 39.5539 12.736C38.2419 12.736 37.2179 13.216 36.4819 14.176C35.7779 15.136 35.3459 16.72 35.1859 18.928H43.6819V18.592Z" fill="#141414"/>
<path d="M70.3102 7.69602C72.5182 7.69602 74.2462 8.36802 75.4942 9.71202C76.7422 11.056 77.3662 12.944 77.3662 15.376V34H69.7822V16.672C69.7822 15.392 69.5742 14.512 69.1582 14.032C68.7742 13.52 68.1822 13.264 67.3822 13.264C65.8462 13.264 64.3742 14.368 62.9662 16.576V34H55.3822V8.51202H62.0062L62.5342 11.536C63.6222 10.256 64.7902 9.29602 66.0382 8.65602C67.3182 8.01602 68.7422 7.69602 70.3102 7.69602Z" fill="#141414"/>
<path d="M103.341 26.608C103.341 27.568 103.469 28.272 103.725 28.72C104.013 29.168 104.461 29.504 105.069 29.728L103.485 34.672C101.917 34.544 100.637 34.208 99.6454 33.664C98.6534 33.088 97.8854 32.192 97.3414 30.976C95.6774 33.536 93.1174 34.816 89.6614 34.816C87.1334 34.816 85.1174 34.08 83.6134 32.608C82.1094 31.136 81.3574 29.216 81.3574 26.848C81.3574 24.064 82.3814 21.936 84.4294 20.464C86.4774 18.992 89.4374 18.256 93.3094 18.256H95.9014V17.152C95.9014 15.648 95.5814 14.624 94.9414 14.08C94.3014 13.504 93.1814 13.216 91.5814 13.216C90.7494 13.216 89.7414 13.344 88.5574 13.6C87.3734 13.824 86.1574 14.144 84.9094 14.56L83.1814 9.56802C84.7814 8.96002 86.4134 8.49602 88.0774 8.17602C89.7734 7.85602 91.3414 7.69602 92.7814 7.69602C96.4294 7.69602 99.1014 8.44802 100.797 9.95202C102.493 11.456 103.341 13.712 103.341 16.72V26.608ZM91.8694 29.392C93.5974 29.392 94.9414 28.576 95.9014 26.944V22.432H94.0294C92.3014 22.432 91.0054 22.736 90.1414 23.344C89.3094 23.952 88.8934 24.896 88.8934 26.176C88.8934 27.2 89.1494 28 89.6614 28.576C90.2054 29.12 90.9414 29.392 91.8694 29.392Z" fill="#141414"/>
<path d="M125.366 32.8C124.438 33.44 123.35 33.936 122.102 34.288C120.886 34.64 119.67 34.816 118.454 34.816C112.886 34.784 110.102 31.712 110.102 25.6V13.792H106.502V8.51202H110.102V2.99202L117.686 2.12802V8.51202H123.542L122.726 13.792H117.686V25.504C117.686 26.688 117.878 27.536 118.262 28.048C118.646 28.56 119.254 28.816 120.086 28.816C120.95 28.816 121.862 28.544 122.822 28L125.366 32.8Z" fill="#141414"/>
<path d="M138.094 7.69602C141.998 7.69602 145.054 8.89602 147.262 11.296C149.47 13.664 150.574 16.992 150.574 21.28C150.574 24 150.062 26.384 149.038 28.432C148.046 30.448 146.606 32.016 144.718 33.136C142.862 34.256 140.654 34.816 138.094 34.816C134.222 34.816 131.166 33.632 128.926 31.264C126.718 28.864 125.614 25.52 125.614 21.232C125.614 18.512 126.11 16.144 127.102 14.128C128.126 12.08 129.566 10.496 131.422 9.37602C133.31 8.25602 135.534 7.69602 138.094 7.69602ZM138.094 13.264C136.558 13.264 135.406 13.92 134.638 15.232C133.87 16.512 133.486 18.512 133.486 21.232C133.486 24.016 133.854 26.048 134.59 27.328C135.358 28.608 136.526 29.248 138.094 29.248C139.63 29.248 140.782 28.608 141.55 27.328C142.318 26.016 142.702 24 142.702 21.28C142.702 18.496 142.318 16.464 141.55 15.184C140.814 13.904 139.662 13.264 138.094 13.264Z" fill="#141414"/>
<path d="M157.401 26.128C158.585 26.128 159.593 26.56 160.425 27.424C161.289 28.256 161.721 29.264 161.721 30.448C161.721 31.664 161.289 32.704 160.425 33.568C159.593 34.4 158.585 34.816 157.401 34.816C156.185 34.816 155.145 34.4 154.281 33.568C153.449 32.704 153.033 31.664 153.033 30.448C153.033 29.264 153.449 28.256 154.281 27.424C155.145 26.56 156.185 26.128 157.401 26.128Z" fill="#141414"/>
</svg>
